HIERARCHY
ROOT SpineBase
{
  OFFSET 0.000000 0.000000 0.000000
  CHANNELS 6 Xposition Yposition Zposition Zrotation Xrotation Yrotation
  JOINT SpineMid
  {
    OFFSET 0.000000 31.248884 -0.000000
    CHANNELS 3 Zrotation Xrotation Yrotation
    JOINT SpineShoulder
    {
      OFFSET 0.066226 23.187393 -0.668806
      CHANNELS 3 Zrotation Xrotation Yrotation
      JOINT Neck
      {
        OFFSET 0.045860 7.661695 -0.543674
        CHANNELS 3 Zrotation Xrotation Yrotation
        JOINT Head
        {
          OFFSET -4.497917 14.396320 -1.152040
          CHANNELS 3 Zrotation Xrotation Yrotation
          End Site
          {
            OFFSET 0 0 0
          }
        }
      }
      JOINT ShoulderLeft
      {
        OFFSET -17.050012 -5.195101 7.278986
        CHANNELS 3 Zrotation Xrotation Yrotation
        JOINT ElbowLeft
        {
          OFFSET -1.235890 -26.431271 2.067615
          CHANNELS 3 Zrotation Xrotation Yrotation
          JOINT WristLeft
          {
            OFFSET 0.856736 -14.804019 -19.448251
            CHANNELS 3 Zrotation Xrotation Yrotation
            JOINT HandLeft
            {
              OFFSET -0.808093 -0.879334 -2.534872
              CHANNELS 3 Zrotation Xrotation Yrotation
              JOINT HandTipLeft
              {
                OFFSET 0.502391 -2.743749 -4.229610
                CHANNELS 3 Zrotation Xrotation Yrotation
                End Site
                {
                  OFFSET 0 0 0
                }
              }
              JOINT ThumbLeft
              {
                OFFSET 1.189894 0.785044 -1.629913
                CHANNELS 3 Zrotation Xrotation Yrotation
                End Site
                {
                  OFFSET 0 0 0
                }
              }
            }
          }
        }
      }
      JOINT ShoulderRight
      {
        OFFSET 14.707713 -3.438294 -8.378331
        CHANNELS 3 Zrotation Xrotation Yrotation
        JOINT ElbowRight
        {
          OFFSET 9.413872 -23.261156 -0.133903
          CHANNELS 3 Zrotation Xrotation Yrotation
          JOINT WristRight
          {
            OFFSET -5.365738 -22.385493 -9.094344
            CHANNELS 3 Zrotation Xrotation Yrotation
            JOINT HandRight
            {
              OFFSET -4.697939 -6.250524 -2.444273
              CHANNELS 3 Zrotation Xrotation Yrotation
              JOINT HandTipRight
              {
                OFFSET -1.428310 -5.545533 -0.911324
                CHANNELS 3 Zrotation Xrotation Yrotation
                End Site
                {
                  OFFSET 0 0 0
                }
              }
              JOINT ThumbRight
              {
                OFFSET -1.797499 1.902334 -1.154832
                CHANNELS 3 Zrotation Xrotation Yrotation
                End Site
                {
                  OFFSET 0 0 0
                }
              }
            }
          }
        }
      }
    }
  }
  JOINT HipLeft
  {
    OFFSET -6.943000 0.274561 -0.954664
    CHANNELS 3 Zrotation Xrotation Yrotation
    JOINT KneeLeft
    {
      OFFSET 3.964561 -35.598134 5.209129
      CHANNELS 3 Zrotation Xrotation Yrotation
      JOINT AnkleLeft
      {
        OFFSET 6.961072 -36.760133 6.973951
        CHANNELS 3 Zrotation Xrotation Yrotation
        JOINT FootLeft
        {
          OFFSET 1.276456 -5.688724 -6.343124
          CHANNELS 3 Zrotation Xrotation Yrotation
          End Site
          {
            OFFSET 0 0 0
          }
        }
      }
    }
  }
  JOINT HipRight
  {
    OFFSET 7.482607 1.370256 -6.246219
    CHANNELS 3 Zrotation Xrotation Yrotation
    JOINT KneeRight
    {
      OFFSET 7.056558 -32.995181 1.315392
      CHANNELS 3 Zrotation Xrotation Yrotation
      JOINT AnkleRight
      {
        OFFSET 2.608717 -38.670189 7.741985
        CHANNELS 3 Zrotation Xrotation Yrotation
        JOINT FootRight
        {
          OFFSET -4.349094 -6.670316 -1.766736
          CHANNELS 3 Zrotation Xrotation Yrotation
          End Site
          {
            OFFSET 0 0 0
          }
        }
      }
    }
  }
}
MOTION
Frames: 12
Frame Time: 0.033333
-24.692942 79.007352 346.884814 -0.000000 -0.000000 20.143884 0.000000 0.000000 -20.143884 -0.000000 0.000000 0.000000 -0.000000 0.000000 0.000000 0.000000 0.000000 0.000000 -0.000000 0.000000 0.000000 -0.000000 0.000000 0.000000 -0.000000 0.000000 0.000000 -0.000000 0.000000 0.000000 0.000000 0.000000 0.000000 0.000000 0.000000 0.000000 -0.000000 0.000000 0.000000 -0.000000 0.000000 0.000000 -0.000000 0.000000 0.000000 -0.000000 0.000000 0.000000 0.000000 0.000000 0.000000 0.000000 0.000000 0.000000 0.000000 0.000000 -20.143884 -0.000000 0.000000 0.000000 -0.000000 0.000000 0.000000 0.000000 0.000000 0.000000 0.000000 0.000000 -20.143884 -0.000000 0.000000 0.000000 -0.000000 0.000000 0.000000 0.000000 0.000000 0.000000
-24.342840 79.083774 346.914816 0.225186 0.123887 19.756257 -0.253808 -0.040477 -19.756591 -0.000000 0.000000 0.000000 -0.000000 0.000000 0.000000 0.000000 0.000000 0.000000 -0.000000 0.000000 0.000000 1.228035 0.195226 -1.599468 6.604308 -14.272466 -10.910694 -14.029513 15.076044 19.768197 0.000000 0.000000 0.000000 0.000000 0.000000 0.000000 -0.000000 0.000000 0.000000 -3.182774 1.953960 0.867451 0.400618 -0.826468 -0.600369 -0.052456 4.118275 -1.001107 0.000000 0.000000 0.000000 0.000000 0.000000 0.000000 -0.253808 -0.040477 -19.756591 -0.000000 0.000000 0.000000 -0.297164 -1.692494 -0.053753 0.000000 0.000000 0.000000 -0.253808 -0.040477 -19.756591 -0.000000 0.000000 0.000000 1.877602 -0.479713 -0.178826 0.000000 0.000000 0.000000
-24.024685 79.150136 346.941093 0.428286 0.234600 19.434466 -0.481941 -0.078725 -19.435674 -0.000000 0.000000 0.000000 -0.000000 0.000000 0.000000 0.000000 0.000000 0.000000 -0.000000 0.000000 0.000000 2.311085 0.425139 -3.001663 10.729660 -27.237805 -19.301461 -30.234528 23.004485 40.134232 0.000000 0.000000 0.000000 0.000000 0.000000 0.000000 -0.000000 0.000000 0.000000 -6.591427 3.747901 1.945116 1.552131 -2.144692 -1.096695 -0.429630 7.060104 -1.667136 0.000000 0.000000 0.000000 0.000000 0.000000 0.000000 -1.275631 0.142467 -19.561802 0.821939 0.057325 0.126159 -0.448761 -3.019620 -0.195055 0.000000 0.000000 0.000000 -1.332941 0.276054 -19.459960 0.920579 -0.050983 0.026161 3.184059 -0.850820 -0.270601 0.000000 0.000000 0.000000
-23.738476 79.206436 346.963645 0.609180 0.332071 19.177943 -0.684459 -0.113509 -19.180386 -0.000000 0.000000 0.000000 0.034657 -0.873630 -0.269730 0.000000 0.000000 0.000000 -0.000000 0.000000 0.000000 3.245459 0.700806 -4.201495 12.905684 -36.808235 -24.999976 -43.994149 24.897484 56.887971 0.000000 0.000000 0.000000 0.000000 0.000000 0.000000 -0.770462 0.352141 0.149721 -9.328811 4.972446 2.985566 3.261346 -3.928379 -1.412580 -1.288499 9.200558 -2.150455 0.000000 0.000000 0.000000 0.000000 0.000000 0.000000 -1.817348 0.201336 -19.359758 1.173199 0.078523 0.179436 -0.467251 -4.020602 -0.414526 0.000000 0.000000 0.000000 -1.928420 0.371858 -19.220248 1.334402 -0.048745 0.043234 4.034479 -1.136201 -0.295748 0.000000 0.000000 0.000000
-23.484213 79.252674 346.982472 0.767769 0.416243 18.986275 -0.861421 -0.143780 -18.990145 -0.000000 0.000000 0.000000 0.027422 -1.027738 -0.318417 0.000000 0.000000 0.000000 -0.000000 0.000000 0.000000 4.028926 1.031846 -5.195960 14.053614 -43.354114 -28.745457 -53.870089 23.880213 68.987859 0.000000 0.000000 0.000000 0.000000 0.000000 0.000000 -0.978338 0.463451 0.197829 -12.624376 6.122928 4.245633 5.369118 -6.215094 -1.446806 -2.803360 10.803067 -2.523073 0.000000 0.000000 0.000000 0.000000 0.000000 0.000000 -2.294227 0.255520 -19.216205 1.484393 0.094561 0.226232 -0.359573 -4.725076 -0.707779 0.000000 0.000000 0.000000 -2.475262 0.443214 -19.048184 1.717037 -0.028050 0.062677 4.496629 -1.351633 -0.264836 0.000000 0.000000 0.000000
-23.261897 79.288851 346.997573 0.903967 0.487070 18.859211 -1.012881 -0.168670 -18.864545 -0.000000 0.000000 0.000000 0.011143 -1.113244 -0.346546 0.000000 0.000000 0.000000 -0.000000 0.000000 0.000000 4.660025 1.426312 -5.983332 14.719115 -47.796345 -31.254609 -60.628717 21.872022 77.479083 0.000000 0.000000 0.000000 0.000000 0.000000 0.000000 -1.160420 0.571298 0.244669 -15.810092 6.939806 5.527318 7.782153 -9.141721 -1.060148 -5.223034 12.057079 -2.788493 0.000000 0.000000 0.000000 0.000000 0.000000 0.000000 -2.705815 0.307148 -19.130695 1.755369 0.105323 0.266583 -0.128001 -5.154164 -1.074491 0.000000 0.000000 0.000000 -2.972788 0.492508 -18.943510 2.068381 0.011047 0.084305 4.604060 -1.507732 -0.181789 0.000000 0.000000 0.000000
-23.043975 79.313288 347.010576 1.060047 0.531006 18.833334 -0.257980 -0.135896 -18.813631 -0.859878 -0.318744 -0.026281 -0.082917 -1.048577 -0.334845 0.000000 0.000000 0.000000 -0.000000 0.000000 0.000000 5.157359 1.724832 -6.602479 14.801209 -51.221933 -35.097238 -65.967537 17.776699 85.456904 0.000000 0.000000 0.000000 0.000000 0.000000 0.000000 -1.326590 0.652969 0.280764 -19.060499 7.102301 6.927956 13.394779 -15.188850 0.881761 -11.350913 9.299472 -2.341654 0.000000 0.000000 0.000000 0.000000 0.000000 0.000000 -3.127197 0.417402 -19.143142 2.033949 0.094632 0.305953 0.539404 -5.183094 -1.831173 0.000000 0.000000 0.000000 -3.495589 0.553986 -18.944895 2.427027 0.078135 0.111325 4.137529 -1.245068 -0.246066 0.000000 0.000000 0.000000
-22.878601 79.331621 347.007039 1.161909 0.580182 18.858566 -0.262063 -0.129148 -18.837189 -0.141767 0.005313 0.028502 -0.966967 -1.347129 -0.375476 0.000000 0.000000 0.000000 -0.814249 -0.377720 -0.058187 5.626676 1.630151 -7.218351 14.500971 -51.467251 -37.281293 -68.145223 12.569221 91.696909 0.000000 0.000000 0.000000 0.000000 0.000000 0.000000 -2.265621 0.352255 0.246230 -21.134581 7.207472 7.810772 16.601522 -21.754251 4.290070 -17.466358 12.353485 -2.172332 0.000000 0.000000 0.000000 0.000000 0.000000 0.000000 -3.423247 0.462158 -19.197560 2.226345 0.102392 0.334558 0.778711 -5.201737 -2.104054 0.000000 0.000000 0.000000 -3.917389 0.558051 -19.000830 2.725100 0.165083 0.139338 3.400099 -1.222250 -0.069143 0.000000 0.000000 0.000000
-22.763699 79.336394 347.010336 1.205433 0.620941 18.936384 -0.244603 -0.125688 -18.914063 -0.132907 0.012576 0.031341 -1.052085 -1.318346 -0.355670 0.000000 0.000000 0.000000 -0.882391 -0.434269 -0.063340 5.716540 2.059690 -7.296248 14.412341 -52.073395 -38.551727 -68.864348 10.721891 93.618250 0.000000 0.000000 0.000000 0.000000 0.000000 0.000000 -2.499130 0.398130 0.283587 -23.042656 7.438977 8.611805 19.606934 -27.809935 7.706872 -23.803224 16.770625 -0.789133 0.000000 0.000000 0.000000 0.000000 0.000000 0.000000 -3.595280 0.481925 -19.294587 2.350993 0.104927 0.352845 1.190686 -5.756409 -2.705453 0.000000 0.000000 0.000000 -4.237084 0.523032 -19.111995 2.971186 0.268800 0.168076 1.934363 -0.988138 0.150578 0.000000 0.000000 0.000000
-22.700707 79.322656 347.020688 1.222456 0.631572 19.021168 -0.233684 -0.128486 -18.998186 -0.122365 0.018136 0.033202 -0.921520 -0.451011 -0.066298 0.000000 0.000000 0.000000 -0.921520 -0.451011 -0.066298 5.355490 3.192687 -6.732484 14.745939 -50.411796 -35.788892 -67.462410 14.841815 88.514381 0.000000 0.000000 0.000000 0.000000 0.000000 0.000000 -2.731871 0.177968 0.195183 -24.353886 8.242589 9.390684 21.361273 -34.593509 12.239968 -28.681449 26.630932 1.070105 0.000000 0.000000 0.000000 0.000000 0.000000 0.000000 -3.663720 0.502795 -19.386698 2.404418 0.102799 0.360389 1.496269 -5.639954 -3.017548 0.000000 0.000000 0.000000 -4.413662 0.512051 -19.216491 3.115907 0.333786 0.185500 1.562135 -1.473424 0.574097 0.000000 0.000000 0.000000
-22.670343 79.315452 347.034958 1.205716 0.625421 19.122100 -0.194701 -0.126289 -19.098341 -0.097734 0.024387 0.035745 -0.965911 -0.465554 -0.069657 0.000000 0.000000 0.000000 -0.965911 -0.465554 -0.069657 5.353013 5.899189 -6.506265 16.651683 -50.619252 -25.022175 -63.905747 24.822966 78.882699 0.000000 0.000000 0.000000 0.000000 0.000000 0.000000 -2.914652 -0.073922 0.091029 -26.411261 9.251591 10.517734 19.616297 -35.806518 11.636091 -36.044478 34.980355 6.832702 0.000000 0.000000 0.000000 0.000000 0.000000 0.000000 -3.687636 0.545129 -19.491833 2.456465 0.083721 0.366206 1.477112 -4.120656 -2.615915 0.000000 0.000000 0.000000 -4.352437 0.648588 -19.284631 3.118383 0.196924 0.160182 0.445982 -1.577078 0.922025 0.000000 0.000000 0.000000
-22.657899 79.315855 347.044248 1.201490 0.618227 19.294408 -0.179402 -0.112324 -19.270494 -0.089822 0.026544 0.036521 -0.979995 -0.478295 -0.070745 0.000000 0.000000 0.000000 -1.621365 0.501007 -0.166681 5.444330 8.917705 -5.361068 13.985881 -42.412791 -18.832179 -46.552456 30.498169 56.103734 0.000000 0.000000 0.000000 0.000000 0.000000 0.000000 -2.444840 0.471648 0.323352 -30.717398 11.135814 11.781541 14.441933 -33.143991 6.776632 -38.609108 37.535062 10.480591 0.000000 0.000000 0.000000 0.000000 0.000000 0.000000 -3.693813 0.629083 -19.660654 2.492539 0.024879 0.366147 0.815555 -3.347105 -1.689017 0.000000 0.000000 0.000000 -4.311071 0.721013 -19.440885 3.105237 0.134278 0.148051 -1.100016 -1.475477 1.235707 0.000000 0.000000 0.000000
